<svg width="105" height="16" viewBox="0 0 105 16" fill="none" xmlns="http://www.w3.org/2000/svg">
<path d="M2.46875 8.29688C2.50521 8.94792 2.65885 9.47656 2.92969 9.88281C3.44531 10.6432 4.35417 11.0234 5.65625 11.0234C6.23958 11.0234 6.77083 10.9401 7.25 10.7734C8.17708 10.4505 8.64062 9.8724 8.64062 9.03906C8.64062 8.41406 8.44531 7.96875 8.05469 7.70312C7.65885 7.44271 7.03906 7.21615 6.19531 7.02344L4.64062 6.67188C3.625 6.44271 2.90625 6.1901 2.48438 5.91406C1.75521 5.4349 1.39062 4.71875 1.39062 3.76562C1.39062 2.73438 1.7474 1.88802 2.46094 1.22656C3.17448 0.565104 4.1849 0.234375 5.49219 0.234375C6.69531 0.234375 7.71615 0.526042 8.55469 1.10938C9.39844 1.6875 9.82031 2.61458 9.82031 3.89062H8.35938C8.28125 3.27604 8.11458 2.80469 7.85938 2.47656C7.38542 1.8776 6.58073 1.57812 5.44531 1.57812C4.52865 1.57812 3.86979 1.77083 3.46875 2.15625C3.06771 2.54167 2.86719 2.98958 2.86719 3.5C2.86719 4.0625 3.10156 4.47396 3.57031 4.73438C3.8776 4.90104 4.57292 5.10938 5.65625 5.35938L7.26562 5.72656C8.04167 5.90365 8.64062 6.14583 9.0625 6.45312C9.79167 6.98958 10.1562 7.76823 10.1562 8.78906C10.1562 10.0599 9.69271 10.9688 8.76562 11.5156C7.84375 12.0625 6.77083 12.3359 5.54688 12.3359C4.11979 12.3359 3.0026 11.9714 2.19531 11.2422C1.38802 10.5182 0.992188 9.53646 1.00781 8.29688H2.46875ZM11.9375 3.67188H13.3672V12H11.9375V3.67188ZM11.9375 0.523438H13.3672V2.11719H11.9375V0.523438ZM18.4531 3.48438C19.1094 3.48438 19.6823 3.64583 20.1719 3.96875C20.4375 4.15104 20.7083 4.41667 20.9844 4.76562V3.71094H22.2812V11.3203C22.2812 12.3828 22.125 13.2214 21.8125 13.8359C21.2292 14.9714 20.1276 15.5391 18.5078 15.5391C17.6068 15.5391 16.849 15.3359 16.2344 14.9297C15.6198 14.5286 15.276 13.8984 15.2031 13.0391H16.6328C16.7005 13.4141 16.8359 13.7031 17.0391 13.9062C17.3568 14.2188 17.8568 14.375 18.5391 14.375C19.6172 14.375 20.3229 13.9948 20.6562 13.2344C20.8542 12.7865 20.9453 11.987 20.9297 10.8359C20.6484 11.263 20.3099 11.5807 19.9141 11.7891C19.5182 11.9974 18.9948 12.1016 18.3438 12.1016C17.4375 12.1016 16.6432 11.7812 15.9609 11.1406C15.2839 10.4948 14.9453 9.42969 14.9453 7.94531C14.9453 6.54427 15.2865 5.45052 15.9688 4.66406C16.6562 3.8776 17.4844 3.48438 18.4531 3.48438ZM20.9844 7.78125C20.9844 6.74479 20.7708 5.97656 20.3438 5.47656C19.9167 4.97656 19.3724 4.72656 18.7109 4.72656C17.7214 4.72656 17.0443 5.1901 16.6797 6.11719C16.487 6.61198 16.3906 7.26042 16.3906 8.0625C16.3906 9.00521 16.5807 9.72396 16.9609 10.2188C17.3464 10.7083 17.862 10.9531 18.5078 10.9531C19.5182 10.9531 20.2292 10.4974 20.6406 9.58594C20.8698 9.07031 20.9844 8.46875 20.9844 7.78125ZM24.4062 3.63281H25.7422V4.82031C26.138 4.33073 26.5573 3.97917 27 3.76562C27.4427 3.55208 27.9349 3.44531 28.4766 3.44531C29.6641 3.44531 30.4661 3.85938 30.8828 4.6875C31.112 5.14062 31.2266 5.78906 31.2266 6.63281V12H29.7969V6.72656C29.7969 6.21615 29.7214 5.80469 29.5703 5.49219C29.3203 4.97135 28.8672 4.71094 28.2109 4.71094C27.8776 4.71094 27.6042 4.74479 27.3906 4.8125C27.0052 4.92708 26.6667 5.15625 26.375 5.5C26.1406 5.77604 25.987 6.0625 25.9141 6.35938C25.8464 6.65104 25.8125 7.07031 25.8125 7.61719V12H24.4062V3.63281ZM39.1719 3.63281V9.1875C39.1719 9.61458 39.2396 9.96354 39.375 10.2344C39.625 10.7344 40.0911 10.9844 40.7734 10.9844C41.7526 10.9844 42.4193 10.5469 42.7734 9.67188C42.9661 9.20312 43.0625 8.5599 43.0625 7.74219V3.63281H44.4688V12H43.1406L43.1562 10.7656C42.974 11.0833 42.7474 11.3516 42.4766 11.5703C41.9401 12.0078 41.2891 12.2266 40.5234 12.2266C39.3307 12.2266 38.5182 11.8281 38.0859 11.0312C37.8516 10.6042 37.7344 10.0339 37.7344 9.32031V3.63281H39.1719ZM50.2031 11.0547C50.8594 11.0547 51.4036 10.7812 51.8359 10.2344C52.2734 9.68229 52.4922 8.85938 52.4922 7.76562C52.4922 7.09896 52.3958 6.52604 52.2031 6.04688C51.8385 5.125 51.1719 4.66406 50.2031 4.66406C49.2292 4.66406 48.5625 5.15104 48.2031 6.125C48.0104 6.64583 47.9141 7.30729 47.9141 8.10938C47.9141 8.75521 48.0104 9.30469 48.2031 9.75781C48.5677 10.6224 49.2344 11.0547 50.2031 11.0547ZM46.5625 3.67188H47.9297V4.78125C48.2109 4.40104 48.5182 4.10677 48.8516 3.89844C49.3255 3.58594 49.8828 3.42969 50.5234 3.42969C51.4714 3.42969 52.276 3.79427 52.9375 4.52344C53.599 5.2474 53.9297 6.28385 53.9297 7.63281C53.9297 9.45573 53.4531 10.7578 52.5 11.5391C51.8958 12.0339 51.1927 12.2812 50.3906 12.2812C49.7604 12.2812 49.2318 12.1432 48.8047 11.8672C48.5547 11.7109 48.276 11.4427 47.9688 11.0625V15.3359H46.5625V3.67188ZM60.3828 2.35938C60.4036 1.77604 60.5052 1.34896 60.6875 1.07812C61.0156 0.598958 61.6484 0.359375 62.5859 0.359375C62.6745 0.359375 62.7656 0.361979 62.8594 0.367188C62.9531 0.372396 63.0599 0.380208 63.1797 0.390625V1.67188C63.0339 1.66146 62.9271 1.65625 62.8594 1.65625C62.7969 1.65104 62.737 1.64844 62.6797 1.64844C62.2526 1.64844 61.9974 1.76042 61.9141 1.98438C61.8307 2.20312 61.7891 2.76562 61.7891 3.67188H63.1797V4.78125H61.7734V12H60.3828V4.78125H59.2188V3.67188H60.3828V2.35938ZM64.5234 3.63281H65.8594V5.07812C65.9688 4.79688 66.237 4.45573 66.6641 4.05469C67.0911 3.64844 67.5833 3.44531 68.1406 3.44531C68.1667 3.44531 68.2109 3.44792 68.2734 3.45312C68.3359 3.45833 68.4427 3.46875 68.5938 3.48438V4.96875C68.5104 4.95312 68.4323 4.94271 68.3594 4.9375C68.2917 4.93229 68.2161 4.92969 68.1328 4.92969C67.4245 4.92969 66.8802 5.15885 66.5 5.61719C66.1198 6.07031 65.9297 6.59375 65.9297 7.1875V12H64.5234V3.63281ZM73.2969 3.44531C73.8906 3.44531 74.4661 3.58594 75.0234 3.86719C75.5807 4.14323 76.0052 4.5026 76.2969 4.94531C76.5781 5.36719 76.7656 5.85938 76.8594 6.42188C76.9427 6.80729 76.9844 7.42188 76.9844 8.26562H70.8516C70.8776 9.11458 71.0781 9.79688 71.4531 10.3125C71.8281 10.8229 72.4089 11.0781 73.1953 11.0781C73.9297 11.0781 74.5156 10.8359 74.9531 10.3516C75.2031 10.0703 75.3802 9.74479 75.4844 9.375H76.8672C76.8307 9.68229 76.7083 10.026 76.5 10.4062C76.2969 10.7812 76.0677 11.0885 75.8125 11.3281C75.3854 11.7448 74.8568 12.026 74.2266 12.1719C73.888 12.2552 73.5052 12.2969 73.0781 12.2969C72.0365 12.2969 71.1536 11.9193 70.4297 11.1641C69.7057 10.4036 69.3438 9.34115 69.3438 7.97656C69.3438 6.63281 69.7083 5.54167 70.4375 4.70312C71.1667 3.86458 72.1198 3.44531 73.2969 3.44531ZM75.5391 7.14844C75.4818 6.53906 75.349 6.05208 75.1406 5.6875C74.7552 5.01042 74.112 4.67188 73.2109 4.67188C72.5651 4.67188 72.0234 4.90625 71.5859 5.375C71.1484 5.83854 70.9167 6.42969 70.8906 7.14844H75.5391ZM82.2031 3.44531C82.7969 3.44531 83.3724 3.58594 83.9297 3.86719C84.487 4.14323 84.9115 4.5026 85.2031 4.94531C85.4844 5.36719 85.6719 5.85938 85.7656 6.42188C85.849 6.80729 85.8906 7.42188 85.8906 8.26562H79.7578C79.7839 9.11458 79.9844 9.79688 80.3594 10.3125C80.7344 10.8229 81.3151 11.0781 82.1016 11.0781C82.8359 11.0781 83.4219 10.8359 83.8594 10.3516C84.1094 10.0703 84.2865 9.74479 84.3906 9.375H85.7734C85.737 9.68229 85.6146 10.026 85.4062 10.4062C85.2031 10.7812 84.974 11.0885 84.7188 11.3281C84.2917 11.7448 83.763 12.026 83.1328 12.1719C82.7943 12.2552 82.4115 12.2969 81.9844 12.2969C80.9427 12.2969 80.0599 11.9193 79.3359 11.1641C78.612 10.4036 78.25 9.34115 78.25 7.97656C78.25 6.63281 78.6146 5.54167 79.3438 4.70312C80.0729 3.86458 81.026 3.44531 82.2031 3.44531ZM84.4453 7.14844C84.388 6.53906 84.2552 6.05208 84.0469 5.6875C83.6615 5.01042 83.0182 4.67188 82.1172 4.67188C81.4714 4.67188 80.9297 4.90625 80.4922 5.375C80.0547 5.83854 79.8229 6.42969 79.7969 7.14844H84.4453ZM101.911 8.4C102.071 8.05867 102.226 7.76 102.375 7.504C102.535 7.248 102.69 7.03467 102.839 6.864H93.5109V6.192H102.839C102.69 6.01067 102.535 5.792 102.375 5.536C102.226 5.28 102.071 4.98667 101.911 4.656H102.471C103.143 5.43467 103.847 6.01067 104.583 6.384V6.672C103.847 7.03467 103.143 7.61067 102.471 8.4H101.911Z" fill="white"/>
</svg>
